<?xml version="1.0" encoding="utf-8" standalone="no"?>
<!DOCTYPE svg PUBLIC "-//W3C//DTD SVG 1.1//EN"
  "http://www.w3.org/Graphics/SVG/1.1/DTD/svg11.dtd">
<svg xmlns:xlink="http://www.w3.org/1999/xlink" width="446.392258pt" height="311.648506pt" viewBox="0 0 446.392258 311.648506" xmlns="http://www.w3.org/2000/svg" version="1.1">
 <metadata>
  <rdf:RDF xmlns:dc="http://purl.org/dc/elements/1.1/" xmlns:cc="http://creativecommons.org/ns#" xmlns:rdf="http://www.w3.org/1999/02/22-rdf-syntax-ns#">
   <cc:Work>
    <dc:type rdf:resource="http://purl.org/dc/dcmitype/StillImage"/>
    <dc:date>2026-08-28T01:51:07.863980</dc:date>
    <dc:format>image/svg+xml</dc:format>
    <dc:creator>
     <cc:Agent>
      <dc:title>Matplotlib v3.10.9, https://matplotlib.org/</dc:title>
     </cc:Agent>
    </dc:creator>
   </cc:Work>
  </rdf:RDF>
 </metadata>
 <defs>
  <style type="text/css">*{stroke-linejoin: round; stroke-linecap: butt}</style>
 </defs>
 <g id="figure_1">
  <g id="patch_1">
   <path d="M 0 311.648506
L 446.392258 311.648506
L 446.392258 0
L 0 0
z
" style="fill: #ffffff"/>
  </g>
  <g id="axes_1">
   <g id="patch_2">
    <path d="M 41.223125 276.027881
L 420.663125 276.027881
L 420.663125 21.558281
L 41.223125 21.558281
z
" style="fill: #ffffff"/>
   </g>
   <g id="matplotlib.axis_1">
    <g id="xtick_1">
     <g id="line2d_1">
      <path d="M 52.466523 276.027881
L 52.466523 21.558281
" clip-path="url(#p8f2ed7b597)" style="fill: none; stroke: #e4e7eb; stroke-width: 0.7; stroke-linecap: square"/>
     </g>
     <g id="line2d_2">
      <defs>
       <path id="m881b1bef75" d="M 0 0
L 0 3.5
" style="stroke: #000000; stroke-width: 0.8"/>
      </defs>
      <g>
       <use xlink:href="#m881b1bef75" x="52.466523" y="276.027881" style="stroke: #000000; stroke-width: 0.8"/>
      </g>
     </g>
     <g id="text_1">
      <!-- $\mathdefault{10^{0}}$ -->
      <g transform="translate(44.546523 289.866475)">
       <text>
        <tspan x="0" y="-0.873438" style="font-size: 9px; font-family: 'DejaVu Sans'">1</tspan>
        <tspan x="5.726074" y="-0.873438" style="font-size: 9px; font-family: 'DejaVu Sans'">0</tspan>
        <tspan x="11.538281" y="-4.31875" style="font-size: 6.3px; font-family: 'DejaVu Sans'">0</tspan>
       </text>
      </g>
     </g>
    </g>
    <g id="xtick_2">
     <g id="line2d_3">
      <path d="M 202.243327 276.027881
L 202.243327 21.558281
" clip-path="url(#p8f2ed7b597)" style="fill: none; stroke: #e4e7eb; stroke-width: 0.7; stroke-linecap: square"/>
     </g>
     <g id="line2d_4">
      <g>
       <use xlink:href="#m881b1bef75" x="202.243327" y="276.027881" style="stroke: #000000; stroke-width: 0.8"/>
      </g>
     </g>
     <g id="text_2">
      <!-- $\mathdefault{10^{1}}$ -->
      <g transform="translate(194.323327 289.866475)">
       <text>
        <tspan x="0" y="-0.960938" style="font-size: 9px; font-family: 'DejaVu Sans'">1</tspan>
        <tspan x="5.726074" y="-0.960938" style="font-size: 9px; font-family: 'DejaVu Sans'">0</tspan>
        <tspan x="11.538281" y="-4.40625" style="font-size: 6.3px; font-family: 'DejaVu Sans'">1</tspan>
       </text>
      </g>
     </g>
    </g>
    <g id="xtick_3">
     <g id="line2d_5">
      <path d="M 352.02013 276.027881
L 352.02013 21.558281
" clip-path="url(#p8f2ed7b597)" style="fill: none; stroke: #e4e7eb; stroke-width: 0.7; stroke-linecap: square"/>
     </g>
     <g id="line2d_6">
      <g>
       <use xlink:href="#m881b1bef75" x="352.02013" y="276.027881" style="stroke: #000000; stroke-width: 0.8"/>
      </g>
     </g>
     <g id="text_3">
      <!-- $\mathdefault{10^{2}}$ -->
      <g transform="translate(344.10013 289.866475)">
       <text>
        <tspan x="0" y="-0.873438" style="font-size: 9px; font-family: 'DejaVu Sans'">1</tspan>
        <tspan x="5.726074" y="-0.873438" style="font-size: 9px; font-family: 'DejaVu Sans'">0</tspan>
        <tspan x="11.538281" y="-4.31875" style="font-size: 6.3px; font-family: 'DejaVu Sans'">2</tspan>
       </text>
      </g>
     </g>
    </g>
    <g id="xtick_4">
     <g id="line2d_7">
      <defs>
       <path id="mf701508a8e" d="M 0 0
L 0 2
" style="stroke: #000000; stroke-width: 0.6"/>
      </defs>
      <g>
       <use xlink:href="#mf701508a8e" x="45.613112" y="276.027881" style="stroke: #000000; stroke-width: 0.6"/>
      </g>
     </g>
    </g>
    <g id="xtick_5">
     <g id="line2d_8">
      <g>
       <use xlink:href="#mf701508a8e" x="97.553834" y="276.027881" style="stroke: #000000; stroke-width: 0.6"/>
      </g>
     </g>
    </g>
    <g id="xtick_6">
     <g id="line2d_9">
      <g>
       <use xlink:href="#mf701508a8e" x="123.928219" y="276.027881" style="stroke: #000000; stroke-width: 0.6"/>
      </g>
     </g>
    </g>
    <g id="xtick_7">
     <g id="line2d_10">
      <g>
       <use xlink:href="#mf701508a8e" x="142.641144" y="276.027881" style="stroke: #000000; stroke-width: 0.6"/>
      </g>
     </g>
    </g>
    <g id="xtick_8">
     <g id="line2d_11">
      <g>
       <use xlink:href="#mf701508a8e" x="157.156016" y="276.027881" style="stroke: #000000; stroke-width: 0.6"/>
      </g>
     </g>
    </g>
    <g id="xtick_9">
     <g id="line2d_12">
      <g>
       <use xlink:href="#mf701508a8e" x="169.01553" y="276.027881" style="stroke: #000000; stroke-width: 0.6"/>
      </g>
     </g>
    </g>
    <g id="xtick_10">
     <g id="line2d_13">
      <g>
       <use xlink:href="#mf701508a8e" x="179.042606" y="276.027881" style="stroke: #000000; stroke-width: 0.6"/>
      </g>
     </g>
    </g>
    <g id="xtick_11">
     <g id="line2d_14">
      <g>
       <use xlink:href="#mf701508a8e" x="187.728455" y="276.027881" style="stroke: #000000; stroke-width: 0.6"/>
      </g>
     </g>
    </g>
    <g id="xtick_12">
     <g id="line2d_15">
      <g>
       <use xlink:href="#mf701508a8e" x="195.389916" y="276.027881" style="stroke: #000000; stroke-width: 0.6"/>
      </g>
     </g>
    </g>
    <g id="xtick_13">
     <g id="line2d_16">
      <g>
       <use xlink:href="#mf701508a8e" x="247.330637" y="276.027881" style="stroke: #000000; stroke-width: 0.6"/>
      </g>
     </g>
    </g>
    <g id="xtick_14">
     <g id="line2d_17">
      <g>
       <use xlink:href="#mf701508a8e" x="273.705023" y="276.027881" style="stroke: #000000; stroke-width: 0.6"/>
      </g>
     </g>
    </g>
    <g id="xtick_15">
     <g id="line2d_18">
      <g>
       <use xlink:href="#mf701508a8e" x="292.417947" y="276.027881" style="stroke: #000000; stroke-width: 0.6"/>
      </g>
     </g>
    </g>
    <g id="xtick_16">
     <g id="line2d_19">
      <g>
       <use xlink:href="#mf701508a8e" x="306.932819" y="276.027881" style="stroke: #000000; stroke-width: 0.6"/>
      </g>
     </g>
    </g>
    <g id="xtick_17">
     <g id="line2d_20">
      <g>
       <use xlink:href="#mf701508a8e" x="318.792333" y="276.027881" style="stroke: #000000; stroke-width: 0.6"/>
      </g>
     </g>
    </g>
    <g id="xtick_18">
     <g id="line2d_21">
      <g>
       <use xlink:href="#mf701508a8e" x="328.819409" y="276.027881" style="stroke: #000000; stroke-width: 0.6"/>
      </g>
     </g>
    </g>
    <g id="xtick_19">
     <g id="line2d_22">
      <g>
       <use xlink:href="#mf701508a8e" x="337.505258" y="276.027881" style="stroke: #000000; stroke-width: 0.6"/>
      </g>
     </g>
    </g>
    <g id="xtick_20">
     <g id="line2d_23">
      <g>
       <use xlink:href="#mf701508a8e" x="345.166719" y="276.027881" style="stroke: #000000; stroke-width: 0.6"/>
      </g>
     </g>
    </g>
    <g id="xtick_21">
     <g id="line2d_24">
      <g>
       <use xlink:href="#mf701508a8e" x="397.10744" y="276.027881" style="stroke: #000000; stroke-width: 0.6"/>
      </g>
     </g>
    </g>
    <g id="text_4">
     <text style="font-size: 9px; font-family: 'DejaVu Sans'; text-anchor: middle; fill: #252a30" x="230.943125" y="302.576788" transform="rotate(-0 230.943125 302.576788)">Mean CUDA latency per method–point evaluation (ms, log scale)</text>
    </g>
   </g>
   <g id="matplotlib.axis_2">
    <g id="ytick_1">
     <g id="line2d_25">
      <path d="M 41.223125 273.291649
L 420.663125 273.291649
" clip-path="url(#p8f2ed7b597)" style="fill: none; stroke: #e4e7eb; stroke-width: 0.7; stroke-linecap: square"/>
     </g>
     <g id="line2d_26">
      <defs>
       <path id="mefa0647740" d="M 0 0
L -3.5 0
" style="stroke: #000000; stroke-width: 0.8"/>
      </defs>
      <g>
       <use xlink:href="#mefa0647740" x="41.223125" y="273.291649" style="stroke: #000000; stroke-width: 0.8"/>
      </g>
     </g>
     <g id="text_5">
      <text style="font-size: 9px; font-family: 'DejaVu Sans'; text-anchor: end" x="34.223125" y="276.710946" transform="rotate(-0 34.223125 276.710946)">0.0</text>
     </g>
    </g>
    <g id="ytick_2">
     <g id="line2d_27">
      <path d="M 41.223125 218.567004
L 420.663125 218.567004
" clip-path="url(#p8f2ed7b597)" style="fill: none; stroke: #e4e7eb; stroke-width: 0.7; stroke-linecap: square"/>
     </g>
     <g id="line2d_28">
      <g>
       <use xlink:href="#mefa0647740" x="41.223125" y="218.567004" style="stroke: #000000; stroke-width: 0.8"/>
      </g>
     </g>
     <g id="text_6">
      <text style="font-size: 9px; font-family: 'DejaVu Sans'; text-anchor: end" x="34.223125" y="221.986301" transform="rotate(-0 34.223125 221.986301)">0.1</text>
     </g>
    </g>
    <g id="ytick_3">
     <g id="line2d_29">
      <path d="M 41.223125 163.842359
L 420.663125 163.842359
" clip-path="url(#p8f2ed7b597)" style="fill: none; stroke: #e4e7eb; stroke-width: 0.7; stroke-linecap: square"/>
     </g>
     <g id="line2d_30">
      <g>
       <use xlink:href="#mefa0647740" x="41.223125" y="163.842359" style="stroke: #000000; stroke-width: 0.8"/>
      </g>
     </g>
     <g id="text_7">
      <text style="font-size: 9px; font-family: 'DejaVu Sans'; text-anchor: end" x="34.223125" y="167.261656" transform="rotate(-0 34.223125 167.261656)">0.2</text>
     </g>
    </g>
    <g id="ytick_4">
     <g id="line2d_31">
      <path d="M 41.223125 109.117714
L 420.663125 109.117714
" clip-path="url(#p8f2ed7b597)" style="fill: none; stroke: #e4e7eb; stroke-width: 0.7; stroke-linecap: square"/>
     </g>
     <g id="line2d_32">
      <g>
       <use xlink:href="#mefa0647740" x="41.223125" y="109.117714" style="stroke: #000000; stroke-width: 0.8"/>
      </g>
     </g>
     <g id="text_8">
      <text style="font-size: 9px; font-family: 'DejaVu Sans'; text-anchor: end" x="34.223125" y="112.53701" transform="rotate(-0 34.223125 112.53701)">0.3</text>
     </g>
    </g>
    <g id="ytick_5">
     <g id="line2d_33">
      <path d="M 41.223125 54.393068
L 420.663125 54.393068
" clip-path="url(#p8f2ed7b597)" style="fill: none; stroke: #e4e7eb; stroke-width: 0.7; stroke-linecap: square"/>
     </g>
     <g id="line2d_34">
      <g>
       <use xlink:href="#mefa0647740" x="41.223125" y="54.393068" style="stroke: #000000; stroke-width: 0.8"/>
      </g>
     </g>
     <g id="text_9">
      <text style="font-size: 9px; font-family: 'DejaVu Sans'; text-anchor: end" x="34.223125" y="57.812365" transform="rotate(-0 34.223125 57.812365)">0.4</text>
     </g>
    </g>
    <g id="text_10">
     <text style="font-size: 9px; font-family: 'DejaVu Sans'; text-anchor: middle; fill: #252a30" x="14.038594" y="148.793081" transform="rotate(-90 14.038594 148.793081)">Mean projector sine error</text>
    </g>
   </g>
   <g id="PathCollection_1">
    <defs>
     <path id="m1ad443e4d7" d="M 0 3.708099
C 0.983399 3.708099 1.926654 3.317391 2.622022 2.622022
C 3.317391 1.926654 3.708099 0.983399 3.708099 0
C 3.708099 -0.983399 3.317391 -1.926654 2.622022 -2.622022
C 1.926654 -3.317391 0.983399 -3.708099 0 -3.708099
C -0.983399 -3.708099 -1.926654 -3.317391 -2.622022 -2.622022
C -3.317391 -1.926654 -3.708099 -0.983399 -3.708099 0
C -3.708099 0.983399 -3.317391 1.926654 -2.622022 2.622022
C -1.926654 3.317391 -0.983399 3.708099 0 3.708099
z
" style="stroke: #252a30; stroke-width: 0.35"/>
    </defs>
    <g clip-path="url(#p8f2ed7b597)">
     <use xlink:href="#m1ad443e4d7" x="389.028508" y="256.366035" style="fill: #c96a2b; stroke: #252a30; stroke-width: 0.35"/>
    </g>
   </g>
   <g id="PathCollection_2">
    <defs>
     <path id="meab5478bcb" d="M 0 3.082207
C 0.817411 3.082207 1.601453 2.757446 2.179449 2.179449
C 2.757446 1.601453 3.082207 0.817411 3.082207 0
C 3.082207 -0.817411 2.757446 -1.601453 2.179449 -2.179449
C 1.601453 -2.757446 0.817411 -3.082207 0 -3.082207
C -0.817411 -3.082207 -1.601453 -2.757446 -2.179449 -2.179449
C -2.757446 -1.601453 -3.082207 -0.817411 -3.082207 0
C -3.082207 0.817411 -2.757446 1.601453 -2.179449 2.179449
C -1.601453 2.757446 -0.817411 3.082207 0 3.082207
z
" style="stroke: #252a30; stroke-width: 0.35"/>
    </defs>
    <g clip-path="url(#p8f2ed7b597)">
     <use xlink:href="#meab5478bcb" x="355.536332" y="249.527704" style="fill: #325d88; stroke: #252a30; stroke-width: 0.35"/>
    </g>
   </g>
   <g id="PathCollection_3">
    <defs>
     <path id="mbd880710ad" d="M 0 3.082207
C 0.817411 3.082207 1.601453 2.757446 2.179449 2.179449
C 2.757446 1.601453 3.082207 0.817411 3.082207 0
C 3.082207 -0.817411 2.757446 -1.601453 2.179449 -2.179449
C 1.601453 -2.757446 0.817411 -3.082207 0 -3.082207
C -0.817411 -3.082207 -1.601453 -2.757446 -2.179449 -2.179449
C -2.757446 -1.601453 -3.082207 -0.817411 -3.082207 0
C -3.082207 0.817411 -2.757446 1.601453 -2.179449 2.179449
C -1.601453 2.757446 -0.817411 3.082207 0 3.082207
z
" style="stroke: #252a30; stroke-width: 0.35"/>
    </defs>
    <g clip-path="url(#p8f2ed7b597)">
     <use xlink:href="#mbd880710ad" x="403.415852" y="256.436844" style="fill: #2f7d6a; stroke: #252a30; stroke-width: 0.35"/>
    </g>
   </g>
   <g id="PathCollection_4">
    <defs>
     <path id="m01b3e59b3c" d="M 0 3.082207
C 0.817411 3.082207 1.601453 2.757446 2.179449 2.179449
C 2.757446 1.601453 3.082207 0.817411 3.082207 0
C 3.082207 -0.817411 2.757446 -1.601453 2.179449 -2.179449
C 1.601453 -2.757446 0.817411 -3.082207 0 -3.082207
C -0.817411 -3.082207 -1.601453 -2.757446 -2.179449 -2.179449
C -2.757446 -1.601453 -3.082207 -0.817411 -3.082207 0
C -3.082207 0.817411 -2.757446 1.601453 -2.179449 2.179449
C -1.601453 2.757446 -0.817411 3.082207 0 3.082207
z
" style="stroke: #252a30; stroke-width: 0.35"/>
    </defs>
    <g clip-path="url(#p8f2ed7b597)">
     <use xlink:href="#m01b3e59b3c" x="320.126579" y="233.082079" style="fill: #7656a3; stroke: #252a30; stroke-width: 0.35"/>
    </g>
   </g>
   <g id="PathCollection_5">
    <defs>
     <path id="mef12ccf142" d="M 0 3.082207
C 0.817411 3.082207 1.601453 2.757446 2.179449 2.179449
C 2.757446 1.601453 3.082207 0.817411 3.082207 0
C 3.082207 -0.817411 2.757446 -1.601453 2.179449 -2.179449
C 1.601453 -2.757446 0.817411 -3.082207 0 -3.082207
C -0.817411 -3.082207 -1.601453 -2.757446 -2.179449 -2.179449
C -2.757446 -1.601453 -3.082207 -0.817411 -3.082207 0
C -3.082207 0.817411 -2.757446 1.601453 -2.179449 2.179449
C -1.601453 2.757446 -0.817411 3.082207 0 3.082207
z
" style="stroke: #252a30; stroke-width: 0.35"/>
    </defs>
    <g clip-path="url(#p8f2ed7b597)">
     <use xlink:href="#mef12ccf142" x="371.448702" y="255.897982" style="fill: #d29b36; stroke: #252a30; stroke-width: 0.35"/>
    </g>
   </g>
   <g id="PathCollection_6">
    <defs>
     <path id="m560f9fd26f" d="M 0 3.082207
C 0.817411 3.082207 1.601453 2.757446 2.179449 2.179449
C 2.757446 1.601453 3.082207 0.817411 3.082207 0
C 3.082207 -0.817411 2.757446 -1.601453 2.179449 -2.179449
C 1.601453 -2.757446 0.817411 -3.082207 0 -3.082207
C -0.817411 -3.082207 -1.601453 -2.757446 -2.179449 -2.179449
C -2.757446 -1.601453 -3.082207 -0.817411 -3.082207 0
C -3.082207 0.817411 -2.757446 1.601453 -2.179449 2.179449
C -1.601453 2.757446 -0.817411 3.082207 0 3.082207
z
" style="stroke: #252a30; stroke-width: 0.35"/>
    </defs>
    <g clip-path="url(#p8f2ed7b597)">
     <use xlink:href="#m560f9fd26f" x="67.915971" y="196.72935" style="fill: #8b929b; stroke: #252a30; stroke-width: 0.35"/>
    </g>
   </g>
   <g id="PathCollection_7">
    <defs>
     <path id="m7c51e60c3e" d="M 0 3.082207
C 0.817411 3.082207 1.601453 2.757446 2.179449 2.179449
C 2.757446 1.601453 3.082207 0.817411 3.082207 0
C 3.082207 -0.817411 2.757446 -1.601453 2.179449 -2.179449
C 1.601453 -2.757446 0.817411 -3.082207 0 -3.082207
C -0.817411 -3.082207 -1.601453 -2.757446 -2.179449 -2.179449
C -2.757446 -1.601453 -3.082207 -0.817411 -3.082207 0
C -3.082207 0.817411 -2.757446 1.601453 -2.179449 2.179449
C -1.601453 2.757446 -0.817411 3.082207 0 3.082207
z
" style="stroke: #252a30; stroke-width: 0.35"/>
    </defs>
    <g clip-path="url(#p8f2ed7b597)">
     <use xlink:href="#m7c51e60c3e" x="58.470398" y="200.662772" style="fill: #a07a46; stroke: #252a30; stroke-width: 0.35"/>
    </g>
   </g>
   <g id="PathCollection_8">
    <defs>
     <path id="ma2253d5772" d="M 0 3.082207
C 0.817411 3.082207 1.601453 2.757446 2.179449 2.179449
C 2.757446 1.601453 3.082207 0.817411 3.082207 0
C 3.082207 -0.817411 2.757446 -1.601453 2.179449 -2.179449
C 1.601453 -2.757446 0.817411 -3.082207 0 -3.082207
C -0.817411 -3.082207 -1.601453 -2.757446 -2.179449 -2.179449
C -2.757446 -1.601453 -3.082207 -0.817411 -3.082207 0
C -3.082207 0.817411 -2.757446 1.601453 -2.179449 2.179449
C -1.601453 2.757446 -0.817411 3.082207 0 3.082207
z
" style="stroke: #252a30; stroke-width: 0.35"/>
    </defs>
    <g clip-path="url(#p8f2ed7b597)">
     <use xlink:href="#ma2253d5772" x="369.251875" y="36.396797" style="fill: #5b6570; stroke: #252a30; stroke-width: 0.35"/>
    </g>
   </g>
   <g id="patch_3">
    <path d="M 41.223125 276.027881
L 41.223125 21.558281
" style="fill: none; stroke: #7b8189; stroke-width: 0.8; stroke-linejoin: miter; stroke-linecap: square"/>
   </g>
   <g id="patch_4">
    <path d="M 41.223125 276.027881
L 420.663125 276.027881
" style="fill: none; stroke: #7b8189; stroke-width: 0.8; stroke-linejoin: miter; stroke-linecap: square"/>
   </g>
   <g id="text_11">
    <text style="font-size: 7px; font-family: 'DejaVu Sans'; text-anchor: start; fill: #252a30" x="396.028508" y="266.366035" transform="rotate(-0 396.028508 266.366035)">SR-SC-NARR</text>
   </g>
   <g id="text_12">
    <text style="font-size: 7px; font-family: 'DejaVu Sans'; text-anchor: end; fill: #252a30" x="350.536332" y="236.527704" transform="rotate(-0 350.536332 236.527704)">Kinetic Fourier ≥25</text>
   </g>
   <g id="text_13">
    <text style="font-size: 7px; font-family: 'DejaVu Sans'; text-anchor: end; fill: #252a30" x="398.415852" y="243.436844" transform="rotate(-0 398.415852 243.436844)">D6 shell 3 (rank 37)</text>
   </g>
   <g id="text_14">
    <text style="font-size: 7px; font-family: 'DejaVu Sans'; text-anchor: start; fill: #252a30" x="325.126579" y="228.082079" transform="rotate(-0 325.126579 228.082079)">D6 shell 2 (rank 19)</text>
   </g>
   <g id="text_15">
    <text style="font-size: 7px; font-family: 'DejaVu Sans'; text-anchor: middle; fill: #252a30" x="371.448702" y="240.897982" transform="rotate(-0 371.448702 240.897982)">Fixed neural–Fourier 25</text>
   </g>
   <g id="text_16">
    <text style="font-size: 7px; font-family: 'DejaVu Sans'; text-anchor: start; fill: #252a30" x="72.915971" y="186.72935" transform="rotate(-0 72.915971 186.72935)">Long-anchor neural</text>
   </g>
   <g id="text_17">
    <text style="font-size: 7px; font-family: 'DejaVu Sans'; text-anchor: start; fill: #252a30" x="63.470398" y="213.662772" transform="rotate(-0 63.470398 213.662772)">Wang–Xie adapted</text>
   </g>
   <g id="text_18">
    <text style="font-size: 7px; font-family: 'DejaVu Sans'; text-anchor: start; fill: #252a30" x="374.251875" y="31.396797" transform="rotate(-0 374.251875 31.396797)">Dai adapted</text>
   </g>
   <g id="text_19">
    <text style="font-size: 11px; font-family: 'DejaVu Sans'; text-anchor: middle; fill: #252a30" x="230.943125" y="15.558281" transform="rotate(-0 230.943125 15.558281)">Formal accuracy–latency context on one NVIDIA A10</text>
   </g>
  </g>
 </g>
 <defs>
  <clipPath id="p8f2ed7b597">
   <rect x="41.223125" y="21.558281" width="379.44" height="254.4696"/>
  </clipPath>
 </defs>
</svg>
