<?xml version="1.0" encoding="utf-8" standalone="no"?>
<!DOCTYPE svg PUBLIC "-//W3C//DTD SVG 1.1//EN"
  "http://www.w3.org/Graphics/SVG/1.1/DTD/svg11.dtd">
<svg xmlns:xlink="http://www.w3.org/1999/xlink" width="416.703125pt" height="290.026906pt" viewBox="0 0 416.703125 290.026906" xmlns="http://www.w3.org/2000/svg" version="1.1">
 <metadata>
  <rdf:RDF xmlns:dc="http://purl.org/dc/elements/1.1/" xmlns:cc="http://creativecommons.org/ns#" xmlns:rdf="http://www.w3.org/1999/02/22-rdf-syntax-ns#">
   <cc:Work>
    <dc:type rdf:resource="http://purl.org/dc/dcmitype/StillImage"/>
    <dc:date>2026-08-28T01:51:07.605942</dc:date>
    <dc:format>image/svg+xml</dc:format>
    <dc:creator>
     <cc:Agent>
      <dc:title>Matplotlib v3.10.9, https://matplotlib.org/</dc:title>
     </cc:Agent>
    </dc:creator>
   </cc:Work>
  </rdf:RDF>
 </metadata>
 <defs>
  <style type="text/css">*{stroke-linejoin: round; stroke-linecap: butt}</style>
 </defs>
 <g id="figure_1">
  <g id="patch_1">
   <path d="M 0 290.026906
L 416.703125 290.026906
L 416.703125 0
L 0 0
z
" style="fill: #ffffff"/>
  </g>
  <g id="axes_1">
   <g id="patch_2">
    <path d="M 41.223125 254.406281
L 409.503125 254.406281
L 409.503125 21.558281
L 41.223125 21.558281
z
" style="fill: #ffffff"/>
   </g>
   <g id="matplotlib.axis_1">
    <g id="xtick_1">
     <g id="line2d_1">
      <path d="M 57.723885 254.406281
L 57.723885 21.558281
" clip-path="url(#pc1d7607b64)" style="fill: none; stroke: #e4e7eb; stroke-width: 0.7; stroke-linecap: square"/>
     </g>
     <g id="line2d_2">
      <defs>
       <path id="m88ab3e74e7" d="M 0 0
L 0 3.5
" style="stroke: #000000; stroke-width: 0.8"/>
      </defs>
      <g>
       <use xlink:href="#m88ab3e74e7" x="57.723885" y="254.406281" style="stroke: #000000; stroke-width: 0.8"/>
      </g>
     </g>
     <g id="text_1">
      <text style="font-size: 9px; font-family: 'DejaVu Sans'; text-anchor: middle" x="57.723885" y="268.244875" transform="rotate(-0 57.723885 268.244875)">0.0</text>
     </g>
    </g>
    <g id="xtick_2">
     <g id="line2d_3">
      <path d="M 113.092977 254.406281
L 113.092977 21.558281
" clip-path="url(#pc1d7607b64)" style="fill: none; stroke: #e4e7eb; stroke-width: 0.7; stroke-linecap: square"/>
     </g>
     <g id="line2d_4">
      <g>
       <use xlink:href="#m88ab3e74e7" x="113.092977" y="254.406281" style="stroke: #000000; stroke-width: 0.8"/>
      </g>
     </g>
     <g id="text_2">
      <text style="font-size: 9px; font-family: 'DejaVu Sans'; text-anchor: middle" x="113.092977" y="268.244875" transform="rotate(-0 113.092977 268.244875)">0.1</text>
     </g>
    </g>
    <g id="xtick_3">
     <g id="line2d_5">
      <path d="M 168.462068 254.406281
L 168.462068 21.558281
" clip-path="url(#pc1d7607b64)" style="fill: none; stroke: #e4e7eb; stroke-width: 0.7; stroke-linecap: square"/>
     </g>
     <g id="line2d_6">
      <g>
       <use xlink:href="#m88ab3e74e7" x="168.462068" y="254.406281" style="stroke: #000000; stroke-width: 0.8"/>
      </g>
     </g>
     <g id="text_3">
      <text style="font-size: 9px; font-family: 'DejaVu Sans'; text-anchor: middle" x="168.462068" y="268.244875" transform="rotate(-0 168.462068 268.244875)">0.2</text>
     </g>
    </g>
    <g id="xtick_4">
     <g id="line2d_7">
      <path d="M 223.83116 254.406281
L 223.83116 21.558281
" clip-path="url(#pc1d7607b64)" style="fill: none; stroke: #e4e7eb; stroke-width: 0.7; stroke-linecap: square"/>
     </g>
     <g id="line2d_8">
      <g>
       <use xlink:href="#m88ab3e74e7" x="223.83116" y="254.406281" style="stroke: #000000; stroke-width: 0.8"/>
      </g>
     </g>
     <g id="text_4">
      <text style="font-size: 9px; font-family: 'DejaVu Sans'; text-anchor: middle" x="223.83116" y="268.244875" transform="rotate(-0 223.83116 268.244875)">0.3</text>
     </g>
    </g>
    <g id="xtick_5">
     <g id="line2d_9">
      <path d="M 279.200252 254.406281
L 279.200252 21.558281
" clip-path="url(#pc1d7607b64)" style="fill: none; stroke: #e4e7eb; stroke-width: 0.7; stroke-linecap: square"/>
     </g>
     <g id="line2d_10">
      <g>
       <use xlink:href="#m88ab3e74e7" x="279.200252" y="254.406281" style="stroke: #000000; stroke-width: 0.8"/>
      </g>
     </g>
     <g id="text_5">
      <text style="font-size: 9px; font-family: 'DejaVu Sans'; text-anchor: middle" x="279.200252" y="268.244875" transform="rotate(-0 279.200252 268.244875)">0.4</text>
     </g>
    </g>
    <g id="xtick_6">
     <g id="line2d_11">
      <path d="M 334.569344 254.406281
L 334.569344 21.558281
" clip-path="url(#pc1d7607b64)" style="fill: none; stroke: #e4e7eb; stroke-width: 0.7; stroke-linecap: square"/>
     </g>
     <g id="line2d_12">
      <g>
       <use xlink:href="#m88ab3e74e7" x="334.569344" y="254.406281" style="stroke: #000000; stroke-width: 0.8"/>
      </g>
     </g>
     <g id="text_6">
      <text style="font-size: 9px; font-family: 'DejaVu Sans'; text-anchor: middle" x="334.569344" y="268.244875" transform="rotate(-0 334.569344 268.244875)">0.5</text>
     </g>
    </g>
    <g id="xtick_7">
     <g id="line2d_13">
      <path d="M 389.938436 254.406281
L 389.938436 21.558281
" clip-path="url(#pc1d7607b64)" style="fill: none; stroke: #e4e7eb; stroke-width: 0.7; stroke-linecap: square"/>
     </g>
     <g id="line2d_14">
      <g>
       <use xlink:href="#m88ab3e74e7" x="389.938436" y="254.406281" style="stroke: #000000; stroke-width: 0.8"/>
      </g>
     </g>
     <g id="text_7">
      <text style="font-size: 9px; font-family: 'DejaVu Sans'; text-anchor: middle" x="389.938436" y="268.244875" transform="rotate(-0 389.938436 268.244875)">0.6</text>
     </g>
    </g>
    <g id="text_8">
     <text style="font-size: 9px; font-family: 'DejaVu Sans'; text-anchor: middle; fill: #252a30" x="225.363125" y="280.955187" transform="rotate(-0 225.363125 280.955187)">Rank-2 projector sine error</text>
    </g>
   </g>
   <g id="matplotlib.axis_2">
    <g id="ytick_1">
     <g id="line2d_15">
      <path d="M 41.223125 244.264202
L 409.503125 244.264202
" clip-path="url(#pc1d7607b64)" style="fill: none; stroke: #e4e7eb; stroke-width: 0.7; stroke-linecap: square"/>
     </g>
     <g id="line2d_16">
      <defs>
       <path id="ma23cbb18ea" d="M 0 0
L -3.5 0
" style="stroke: #000000; stroke-width: 0.8"/>
      </defs>
      <g>
       <use xlink:href="#ma23cbb18ea" x="41.223125" y="244.264202" style="stroke: #000000; stroke-width: 0.8"/>
      </g>
     </g>
     <g id="text_9">
      <text style="font-size: 9px; font-family: 'DejaVu Sans'; text-anchor: end" x="34.223125" y="247.683499" transform="rotate(-0 34.223125 247.683499)">0.0</text>
     </g>
    </g>
    <g id="ytick_2">
     <g id="line2d_17">
      <path d="M 41.223125 201.839818
L 409.503125 201.839818
" clip-path="url(#pc1d7607b64)" style="fill: none; stroke: #e4e7eb; stroke-width: 0.7; stroke-linecap: square"/>
     </g>
     <g id="line2d_18">
      <g>
       <use xlink:href="#ma23cbb18ea" x="41.223125" y="201.839818" style="stroke: #000000; stroke-width: 0.8"/>
      </g>
     </g>
     <g id="text_10">
      <text style="font-size: 9px; font-family: 'DejaVu Sans'; text-anchor: end" x="34.223125" y="205.259115" transform="rotate(-0 34.223125 205.259115)">0.2</text>
     </g>
    </g>
    <g id="ytick_3">
     <g id="line2d_19">
      <path d="M 41.223125 159.415434
L 409.503125 159.415434
" clip-path="url(#pc1d7607b64)" style="fill: none; stroke: #e4e7eb; stroke-width: 0.7; stroke-linecap: square"/>
     </g>
     <g id="line2d_20">
      <g>
       <use xlink:href="#ma23cbb18ea" x="41.223125" y="159.415434" style="stroke: #000000; stroke-width: 0.8"/>
      </g>
     </g>
     <g id="text_11">
      <text style="font-size: 9px; font-family: 'DejaVu Sans'; text-anchor: end" x="34.223125" y="162.834731" transform="rotate(-0 34.223125 162.834731)">0.4</text>
     </g>
    </g>
    <g id="ytick_4">
     <g id="line2d_21">
      <path d="M 41.223125 116.99105
L 409.503125 116.99105
" clip-path="url(#pc1d7607b64)" style="fill: none; stroke: #e4e7eb; stroke-width: 0.7; stroke-linecap: square"/>
     </g>
     <g id="line2d_22">
      <g>
       <use xlink:href="#ma23cbb18ea" x="41.223125" y="116.99105" style="stroke: #000000; stroke-width: 0.8"/>
      </g>
     </g>
     <g id="text_12">
      <text style="font-size: 9px; font-family: 'DejaVu Sans'; text-anchor: end" x="34.223125" y="120.410346" transform="rotate(-0 34.223125 120.410346)">0.6</text>
     </g>
    </g>
    <g id="ytick_5">
     <g id="line2d_23">
      <path d="M 41.223125 74.566665
L 409.503125 74.566665
" clip-path="url(#pc1d7607b64)" style="fill: none; stroke: #e4e7eb; stroke-width: 0.7; stroke-linecap: square"/>
     </g>
     <g id="line2d_24">
      <g>
       <use xlink:href="#ma23cbb18ea" x="41.223125" y="74.566665" style="stroke: #000000; stroke-width: 0.8"/>
      </g>
     </g>
     <g id="text_13">
      <text style="font-size: 9px; font-family: 'DejaVu Sans'; text-anchor: end" x="34.223125" y="77.985962" transform="rotate(-0 34.223125 77.985962)">0.8</text>
     </g>
    </g>
    <g id="ytick_6">
     <g id="line2d_25">
      <path d="M 41.223125 32.142281
L 409.503125 32.142281
" clip-path="url(#pc1d7607b64)" style="fill: none; stroke: #e4e7eb; stroke-width: 0.7; stroke-linecap: square"/>
     </g>
     <g id="line2d_26">
      <g>
       <use xlink:href="#ma23cbb18ea" x="41.223125" y="32.142281" style="stroke: #000000; stroke-width: 0.8"/>
      </g>
     </g>
     <g id="text_14">
      <text style="font-size: 9px; font-family: 'DejaVu Sans'; text-anchor: end" x="34.223125" y="35.561578" transform="rotate(-0 34.223125 35.561578)">1.0</text>
     </g>
    </g>
    <g id="text_15">
     <text style="font-size: 9px; font-family: 'DejaVu Sans'; text-anchor: middle; fill: #252a30" x="14.038594" y="137.982281" transform="rotate(-90 14.038594 137.982281)">Empirical cumulative probability</text>
    </g>
   </g>
   <g id="line2d_27">
    <path d="M 58.159708 243.822281
L 58.159708 242.93844
L 58.308313 242.496519
L 58.308313 241.612678
L 58.554461 241.170757
L 58.557483 238.961154
L 58.803594 238.519233
L 58.913738 236.30963
L 58.994477 235.425789
L 59.087626 233.658106
L 59.215395 233.216185
L 59.292391 231.006582
L 59.356889 230.122741
L 59.392151 228.355058
L 59.470102 227.471217
L 59.540132 225.703534
L 59.682764 225.261613
L 59.739305 221.726248
L 59.98254 221.284327
L 60.089165 217.748962
L 60.267127 213.771676
L 60.360385 212.887834
L 60.404145 209.79439
L 60.487089 208.910548
L 60.546129 207.142866
L 60.897011 206.700945
L 60.957757 203.16558
L 61.031487 202.281738
L 61.031487 201.839818
L 61.174994 201.397897
L 61.179758 199.188294
L 61.32265 198.746373
L 61.405206 194.769087
L 61.610667 194.327166
L 61.768308 191.233722
L 61.944236 189.024118
L 62.021307 184.604912
L 62.239365 184.162991
L 62.333027 180.627626
L 62.586725 180.185705
L 62.586725 179.301864
L 62.719442 178.859943
L 62.721251 177.534181
L 62.892455 177.09226
L 62.999956 171.347292
L 63.215414 170.905371
L 63.215414 170.02153
L 63.551014 169.579609
L 63.551014 168.695768
L 63.677254 168.253847
L 63.734896 164.276561
L 63.858474 163.83464
L 63.858474 162.950799
L 63.978367 162.508878
L 64.07866 158.973513
L 64.179731 157.20583
L 64.259929 154.996227
L 64.463437 154.554306
L 64.815233 148.809338
L 64.925674 147.925496
L 64.925674 147.483576
L 65.067524 147.041655
L 65.067524 146.157814
L 65.199962 145.715893
L 65.238329 144.390131
L 65.429962 143.94821
L 65.513155 140.854766
L 65.598223 139.970924
L 65.598223 139.529004
L 65.801516 139.087083
L 65.801516 138.203242
L 66.119787 136.87748
L 66.440967 132.900194
L 66.674374 132.458273
L 66.674374 131.574432
L 66.992754 131.132511
L 67.164545 130.69059
L 67.333823 129.364828
L 67.502097 128.922908
L 67.514869 127.597146
L 68.03475 127.155225
L 68.260016 126.713304
L 68.304623 124.945622
L 68.511575 123.177939
L 68.723371 121.852177
L 68.844165 121.410256
L 68.913889 119.642574
L 69.073848 118.758732
L 69.271396 116.99105
L 69.271396 116.107208
L 69.417044 115.665288
L 70.474077 115.223367
L 70.545531 114.781446
L 70.755748 114.339526
L 71.116399 113.897605
L 71.396119 111.688002
L 71.605488 111.246081
L 71.696282 110.362239
L 72.314408 109.920319
L 72.463093 109.036477
L 73.296601 108.594557
L 73.888471 107.268795
L 74.065923 105.943033
L 74.298029 105.501112
L 74.486309 103.733429
L 75.081091 103.291509
L 75.503078 102.407667
L 76.065848 101.965747
L 76.293916 101.081905
L 76.414346 98.872302
L 76.560517 98.430381
L 77.107875 97.54654
L 77.281209 96.662699
L 77.335018 96.220778
L 77.559862 95.778857
L 78.125189 95.336937
L 78.230242 93.569254
L 78.411914 92.685413
L 78.424213 91.801571
L 79.217316 91.359651
L 79.846831 90.475809
L 80.12573 89.591968
L 80.351129 89.150047
L 81.343683 88.708127
L 81.559957 87.824285
L 82.343036 86.940444
L 82.616696 86.498523
L 82.663495 85.614682
L 82.905581 85.172761
L 82.966912 84.730841
L 83.163027 84.28892
L 83.336767 83.405079
L 83.717812 82.079317
L 84.197421 80.753555
L 84.228115 80.311634
L 84.385389 79.869713
L 84.514942 78.543951
L 84.712717 78.102031
L 85.096354 77.66011
L 85.267361 77.218189
L 85.372283 76.334348
L 85.579308 75.892427
L 86.787561 75.008586
L 86.799969 74.566665
L 87.829922 74.124745
L 87.869071 73.682824
L 88.176397 73.240903
L 88.248983 72.798983
L 89.102295 71.915141
L 90.391063 71.473221
L 90.795006 71.0313
L 91.578949 70.589379
L 93.07097 70.147459
L 93.629763 69.263617
L 93.71862 68.379776
L 94.012256 67.937855
L 94.109201 67.054014
L 94.915398 63.960569
L 94.974555 63.518649
L 95.517798 63.076728
L 95.881672 62.192887
L 96.084664 61.750966
L 96.779007 61.309045
L 97.232417 60.867125
L 97.285225 60.425204
L 97.983207 59.983283
L 98.079967 59.541363
L 98.313275 59.099442
L 98.454057 58.215601
L 99.024929 57.331759
L 99.183788 56.889839
L 99.866683 56.447918
L 100.156694 56.005997
L 100.177583 55.564077
L 100.565099 55.122156
L 101.739362 54.680235
L 102.117906 54.238315
L 102.150633 53.796394
L 103.149657 53.354473
L 103.354137 52.470632
L 103.563652 52.028711
L 104.508523 51.586791
L 105.43858 50.261029
L 105.534771 49.819108
L 106.732364 49.377187
L 106.942934 48.935267
L 107.335817 48.493346
L 108.929464 48.051425
L 109.170462 47.609505
L 109.637023 47.167584
L 110.735986 46.725663
L 111.422476 46.283743
L 111.449449 45.841822
L 111.874968 45.399901
L 112.468163 44.957981
L 113.399578 44.51606
L 113.498972 44.074139
L 114.191667 43.190298
L 116.239653 42.748377
L 120.693407 42.306457
L 120.935668 41.864536
L 123.452678 41.422615
L 123.798805 40.538774
L 125.988894 40.096853
L 126.1119 39.654933
L 126.579418 39.213012
L 127.328194 38.771091
L 127.439312 38.329171
L 128.186497 37.003409
L 129.900127 36.561488
L 129.98534 36.119567
L 130.421914 35.677647
L 132.716087 34.793805
L 134.481146 34.351885
L 134.60556 33.909964
L 138.676885 33.468043
L 145.47039 33.026123
L 145.826106 32.584202
L 150.111272 32.142281
L 150.111272 32.142281
" clip-path="url(#pc1d7607b64)" style="fill: none; stroke: #c96a2b; stroke-width: 1.8; stroke-linecap: square"/>
   </g>
   <g id="line2d_28">
    <path d="M 58.159708 243.822281
L 58.159708 242.93844
L 58.308313 242.496519
L 58.308313 241.612678
L 58.554461 241.170757
L 58.557483 238.961154
L 58.803594 238.519233
L 58.913738 236.30963
L 58.994477 235.425789
L 59.087626 233.658106
L 59.215395 233.216185
L 59.292391 231.006582
L 59.356889 230.122741
L 59.392151 228.355058
L 59.470102 227.471217
L 59.540132 225.703534
L 59.682764 225.261613
L 59.739305 221.726248
L 59.98254 221.284327
L 60.089165 217.748962
L 60.267127 213.771676
L 60.360385 212.887834
L 60.404145 209.79439
L 60.487089 208.910548
L 60.546129 207.142866
L 60.897011 206.700945
L 60.957757 203.16558
L 61.031487 202.281738
L 61.031487 201.839818
L 61.174994 201.397897
L 61.179758 199.188294
L 61.32265 198.746373
L 61.405206 195.211008
L 61.723387 194.769087
L 61.820391 191.233722
L 61.944236 190.791801
L 62.021307 185.930674
L 62.239365 185.488753
L 62.333027 181.953388
L 62.586725 181.511467
L 62.586725 180.627626
L 62.719442 180.185705
L 62.719442 179.301864
L 62.892455 178.859943
L 62.999956 173.998816
L 63.215414 171.347292
L 63.551014 170.905371
L 63.551014 170.02153
L 63.677254 169.579609
L 63.734896 166.044244
L 63.858474 165.602323
L 63.858474 164.718482
L 63.978367 164.276561
L 64.029729 162.066958
L 64.128999 161.183116
L 64.179731 159.415434
L 64.321377 158.973513
L 64.321377 158.089672
L 64.487208 157.647751
L 64.555659 155.438148
L 64.681945 154.996227
L 64.681945 154.112386
L 64.925674 153.670465
L 64.925674 152.786624
L 65.067524 152.344703
L 65.067524 151.460862
L 65.199962 151.018941
L 65.199962 150.1351
L 65.429962 149.693179
L 65.513155 147.483576
L 65.598223 146.599734
L 65.598223 146.157814
L 65.801516 145.715893
L 65.801516 144.832052
L 66.200779 144.390131
L 66.200779 143.50629
L 66.41507 143.064369
L 66.440967 140.854766
L 66.674374 140.412845
L 66.711915 138.203242
L 66.938537 137.761321
L 66.938537 136.87748
L 67.502097 136.435559
L 67.502097 135.551718
L 67.615333 134.667876
L 67.615333 134.225956
L 68.260016 133.784035
L 68.260016 132.900194
L 68.614363 132.458273
L 68.614363 131.574432
L 68.913889 131.132511
L 68.963355 128.922908
L 69.271396 128.480987
L 69.271396 127.597146
L 69.537129 127.155225
L 69.537129 126.271384
L 71.312304 125.829463
L 71.312304 124.945622
L 72.064944 124.503701
L 72.064944 123.61986
L 72.605354 123.177939
L 72.605354 122.294098
L 72.879665 121.852177
L 72.879665 120.968336
L 73.116643 120.526415
L 73.116643 119.642574
L 74.44 119.200653
L 74.44 118.316812
L 74.723195 117.874891
L 74.723195 116.99105
L 74.926641 116.549129
L 74.926641 115.665288
L 75.841071 115.223367
L 75.841071 114.339526
L 76.450788 113.897605
L 76.450788 113.013764
L 78.468261 112.571843
L 78.468261 111.688002
L 79.035084 111.246081
L 79.035084 110.362239
L 79.148771 109.478398
L 79.148771 109.036477
L 80.417458 108.594557
L 80.417458 107.710715
L 81.579568 107.268795
L 81.579568 106.384953
L 82.040932 105.943033
L 82.040932 105.059191
L 82.296797 104.617271
L 82.296797 103.733429
L 84.686424 103.291509
L 84.686424 102.407667
L 84.868919 101.965747
L 84.868919 101.081905
L 85.72533 100.639985
L 85.72533 99.756143
L 85.918621 99.314223
L 85.959016 97.104619
L 86.743506 96.662699
L 86.750151 94.453095
L 88.805808 94.011175
L 88.805808 93.127333
L 89.017546 92.685413
L 89.041939 90.475809
L 90.885103 90.033889
L 90.885103 89.150047
L 91.268141 88.708127
L 91.268141 87.824285
L 92.434471 87.382365
L 92.434471 86.498523
L 92.591128 86.056603
L 92.591128 85.172761
L 93.463195 84.730841
L 93.463195 83.846999
L 96.31415 83.405079
L 96.31415 82.521237
L 96.435958 82.079317
L 96.435958 81.195475
L 97.336823 80.753555
L 97.336823 79.869713
L 97.80587 79.427793
L 97.896204 77.218189
L 99.335825 76.776269
L 99.335825 75.892427
L 99.979761 75.450507
L 99.979761 74.566665
L 100.754237 74.124745
L 100.754237 73.240903
L 101.632932 72.798983
L 101.632932 71.915141
L 107.069114 71.473221
L 107.069114 70.589379
L 108.454555 70.147459
L 108.454555 69.263617
L 112.871492 68.821697
L 112.88048 66.612093
L 113.258537 66.170173
L 113.258537 65.286331
L 113.826242 64.844411
L 113.826242 63.960569
L 114.72417 63.518649
L 114.72417 62.634807
L 116.252161 62.192887
L 116.252161 61.309045
L 116.380772 60.867125
L 116.380772 59.983283
L 117.625291 59.541363
L 117.625291 58.657521
L 117.833272 58.215601
L 117.833272 57.331759
L 117.983078 56.889839
L 117.983078 56.005997
L 118.732047 55.564077
L 118.732047 54.680235
L 124.838119 54.238315
L 124.838119 53.354473
L 126.750529 52.912553
L 126.750529 52.028711
L 127.151832 51.586791
L 127.151832 50.702949
L 129.000579 50.261029
L 129.000579 49.377187
L 130.646256 48.935267
L 130.646256 48.051425
L 135.872697 47.609505
L 135.872697 46.725663
L 136.660649 46.283743
L 136.660649 45.399901
L 137.898188 44.957981
L 137.898188 44.074139
L 138.878737 43.632219
L 138.878737 42.748377
L 145.836726 42.306457
L 145.836726 41.422615
L 154.482171 40.980695
L 154.482171 40.096853
L 158.41105 39.654933
L 158.41105 38.771091
L 159.420879 38.329171
L 159.420879 37.445329
L 164.212633 37.003409
L 164.212633 36.119567
L 167.349738 35.677647
L 167.349738 34.793805
L 172.751748 34.351885
L 172.751748 33.468043
L 188.030031 33.026123
L 188.030031 32.142281
L 188.030031 32.142281
" clip-path="url(#pc1d7607b64)" style="fill: none; stroke: #325d88; stroke-width: 1.8; stroke-linecap: square"/>
   </g>
   <g id="line2d_29">
    <path d="M 57.963125 243.822281
L 58.050412 237.635392
L 58.150527 234.100027
L 58.257239 228.355058
L 58.338233 227.471217
L 58.402078 217.748962
L 58.518474 217.307041
L 58.616459 212.445914
L 58.705064 211.562072
L 58.776301 207.142866
L 58.990038 204.049421
L 59.088234 196.53677
L 59.212044 194.769087
L 59.246285 191.233722
L 59.464287 190.791801
L 59.464287 189.90796
L 59.575739 189.024118
L 59.647359 183.27915
L 59.714755 182.395308
L 59.718146 180.627626
L 59.850986 180.185705
L 59.850986 179.301864
L 59.996883 178.859943
L 60.078573 173.998816
L 60.116381 172.231133
L 60.22595 170.02153
L 60.280031 168.695768
L 60.472171 162.508878
L 60.472171 162.066958
L 60.58369 161.183116
L 60.58369 160.741196
L 60.773703 160.299275
L 60.8284 156.76391
L 60.897188 155.880068
L 60.99874 154.112386
L 61.16823 153.670465
L 61.214584 147.483576
L 61.405169 147.041655
L 61.405169 146.157814
L 61.51987 145.273972
L 61.54516 143.50629
L 61.91573 143.064369
L 61.996027 140.854766
L 62.107786 139.970924
L 62.107786 139.529004
L 62.567531 139.087083
L 62.567531 138.203242
L 63.161139 137.761321
L 63.26922 135.551718
L 64.617889 135.109797
L 64.685887 132.900194
L 64.851956 132.458273
L 64.851956 131.574432
L 65.327469 131.132511
L 65.327469 130.24867
L 65.904658 129.806749
L 65.904658 128.922908
L 66.631693 128.480987
L 66.631693 127.597146
L 66.896356 127.155225
L 66.896356 126.271384
L 67.591008 125.829463
L 67.591008 124.945622
L 68.048938 124.503701
L 68.048938 123.61986
L 68.988369 123.177939
L 68.988369 122.294098
L 69.366269 121.852177
L 69.366269 120.968336
L 69.489536 120.526415
L 69.489536 119.642574
L 69.680992 119.200653
L 69.680992 118.316812
L 70.261188 117.874891
L 70.261188 116.99105
L 70.890786 116.549129
L 70.890786 115.665288
L 71.582452 115.223367
L 71.582452 114.339526
L 71.878584 113.897605
L 71.878584 113.013764
L 72.354091 112.571843
L 72.354091 111.688002
L 72.638631 111.246081
L 72.638631 110.362239
L 73.753549 109.920319
L 73.753549 109.036477
L 74.656429 108.594557
L 74.656429 107.710715
L 75.330791 107.268795
L 75.330791 106.384953
L 75.951923 105.943033
L 75.951923 105.059191
L 76.457786 104.617271
L 76.490006 102.407667
L 77.96695 101.965747
L 78.046951 99.756143
L 78.346198 99.314223
L 78.346198 98.430381
L 78.977775 97.988461
L 79.05516 95.778857
L 80.045502 95.336937
L 80.045502 94.453095
L 80.224049 94.011175
L 80.248391 91.801571
L 81.588953 91.359651
L 81.588953 90.475809
L 82.281102 90.033889
L 82.281102 89.150047
L 84.456413 88.708127
L 84.456413 87.824285
L 84.839633 87.382365
L 84.839633 86.498523
L 85.308868 86.056603
L 85.308868 85.172761
L 85.572827 84.730841
L 85.572827 83.846999
L 85.776121 83.405079
L 85.883327 81.195475
L 86.867095 80.753555
L 86.867095 79.869713
L 87.773138 79.427793
L 87.773138 78.543951
L 87.915778 78.102031
L 88.002301 75.892427
L 89.261188 75.450507
L 89.261188 74.566665
L 91.13574 74.124745
L 91.228373 71.915141
L 94.1247 71.473221
L 94.1247 70.589379
L 96.534137 70.147459
L 96.534137 69.263617
L 97.614931 68.821697
L 97.648197 66.612093
L 98.318385 66.170173
L 98.318385 65.286331
L 98.574271 64.844411
L 98.620094 62.634807
L 99.746428 62.192887
L 99.746428 61.309045
L 101.195939 60.867125
L 101.195939 59.983283
L 102.412722 59.541363
L 102.412722 58.657521
L 102.673718 58.215601
L 102.673718 57.331759
L 102.975238 56.889839
L 102.975238 56.005997
L 104.664777 55.564077
L 104.664777 54.680235
L 107.366061 54.238315
L 107.366061 53.354473
L 107.565642 52.912553
L 107.565642 52.028711
L 108.794381 51.586791
L 108.794381 50.702949
L 109.911746 50.261029
L 109.911746 49.377187
L 111.928403 48.935267
L 111.928403 48.051425
L 114.616706 47.609505
L 114.616706 46.725663
L 116.05399 46.283743
L 116.05399 45.399901
L 117.224487 44.957981
L 117.224487 44.074139
L 119.16844 43.632219
L 119.16844 42.748377
L 126.164212 42.306457
L 126.164212 41.422615
L 128.977491 40.980695
L 128.977491 40.096853
L 131.795864 39.654933
L 131.795864 38.771091
L 132.655431 38.329171
L 132.655431 37.445329
L 132.784407 37.003409
L 132.784407 36.119567
L 135.642688 35.677647
L 135.642688 34.793805
L 140.701578 34.351885
L 140.701578 33.468043
L 150.484239 33.026123
L 150.484239 32.142281
L 150.484239 32.142281
" clip-path="url(#pc1d7607b64)" style="fill: none; stroke: #2f7d6a; stroke-width: 1.8; stroke-linecap: square"/>
   </g>
   <g id="line2d_30">
    <path d="M 77.901675 243.822281
L 79.525655 243.380361
L 79.908249 242.496519
L 79.919247 242.054599
L 80.639905 241.612678
L 81.329552 239.403075
L 81.341524 238.961154
L 81.95203 237.635392
L 81.993828 237.193471
L 82.414969 236.30963
L 82.534216 235.425789
L 83.035838 234.983868
L 83.279527 234.100027
L 83.32263 233.658106
L 83.809839 232.332344
L 83.854251 231.890423
L 84.673591 231.448503
L 84.806156 230.564661
L 84.994661 230.122741
L 85.326865 229.68082
L 85.346329 229.238899
L 85.608607 228.796979
L 85.863359 227.471217
L 86.04384 227.029296
L 86.055117 226.587375
L 86.515664 225.703534
L 86.569097 225.261613
L 86.939501 224.819693
L 87.114974 223.935851
L 87.311301 223.493931
L 87.376878 223.05201
L 87.81131 222.610089
L 88.068275 222.168169
L 88.09705 221.726248
L 88.896985 220.400486
L 89.346096 219.516645
L 89.472574 217.748962
L 89.474861 217.307041
L 89.764139 216.86512
L 90.192065 216.4232
L 90.634429 215.097438
L 90.777513 214.655517
L 91.409488 214.213596
L 92.273939 210.23631
L 92.400855 207.584786
L 92.62558 207.142866
L 92.973187 204.491342
L 92.974692 204.049421
L 93.088139 203.6075
L 93.681378 202.723659
L 93.817625 202.281738
L 94.098359 201.839818
L 94.169733 200.955976
L 94.422048 200.514056
L 94.700555 197.862532
L 95.097388 196.97869
L 95.297163 196.094849
L 95.345246 195.652928
L 95.705014 194.769087
L 95.785002 194.327166
L 96.053936 193.885246
L 96.10109 193.443325
L 96.740882 192.117563
L 96.776973 191.233722
L 97.007187 190.791801
L 97.492585 190.34988
L 97.811272 188.140277
L 98.034078 187.698356
L 98.17817 186.814515
L 98.66489 186.372594
L 98.804714 185.930674
L 98.910524 185.046832
L 99.144402 184.604912
L 99.539036 184.162991
L 99.739967 183.27915
L 100.177473 180.627626
L 100.639951 180.185705
L 100.759278 178.859943
L 101.274108 177.976102
L 101.913032 177.09226
L 102.244545 175.324578
L 102.692287 173.998816
L 102.840979 173.114974
L 103.046014 171.789212
L 103.503515 171.347292
L 103.58672 170.905371
L 104.228522 170.46345
L 104.346148 169.137688
L 104.530339 168.695768
L 104.543302 168.253847
L 105.352714 167.370006
L 105.51273 166.044244
L 105.949403 165.602323
L 106.713503 163.83464
L 107.154325 163.39272
L 107.421902 162.950799
L 107.426295 162.508878
L 107.564695 162.066958
L 108.123317 161.625037
L 108.382851 161.183116
L 108.685694 160.299275
L 108.927328 159.857354
L 108.961293 159.415434
L 110.200583 156.76391
L 110.336037 156.321989
L 110.439958 154.996227
L 110.510217 154.554306
L 110.837919 154.112386
L 110.896297 153.670465
L 111.346443 153.228544
L 111.72843 151.902782
L 112.028255 151.018941
L 112.130705 149.693179
L 112.390445 149.251258
L 113.098642 148.809338
L 113.466674 148.367417
L 113.696836 147.041655
L 113.794822 146.157814
L 113.88659 145.715893
L 114.872205 145.273972
L 115.098192 144.832052
L 115.113848 144.390131
L 115.934171 141.738607
L 115.96337 141.296686
L 116.266879 140.854766
L 116.452789 139.970924
L 117.394639 138.645162
L 118.206449 138.203242
L 118.406607 137.3194
L 119.023036 136.435559
L 119.366003 135.993638
L 119.48906 134.667876
L 120.084396 134.225956
L 120.491234 133.342114
L 121.410685 132.016352
L 121.472162 131.574432
L 121.912298 131.132511
L 122.123097 130.24867
L 122.657992 129.806749
L 123.131142 128.922908
L 123.150398 128.039066
L 123.375522 127.597146
L 124.462829 126.713304
L 124.698802 125.387542
L 125.261864 124.945622
L 125.445112 124.503701
L 126.095673 123.61986
L 126.143948 123.177939
L 126.323073 122.736018
L 127.249704 122.294098
L 127.279228 121.852177
L 128.171652 119.642574
L 128.801618 119.200653
L 128.873147 118.316812
L 129.375709 116.99105
L 129.928684 114.781446
L 130.42372 114.339526
L 131.034417 113.013764
L 131.453208 112.571843
L 132.021745 109.920319
L 132.577114 109.478398
L 133.431278 109.036477
L 133.457316 108.594557
L 133.639571 108.152636
L 133.698507 107.268795
L 134.479745 106.384953
L 134.691649 105.501112
L 135.564826 104.617271
L 136.16528 104.17535
L 137.273671 102.849588
L 137.435524 102.407667
L 137.970884 101.965747
L 138.326777 101.081905
L 138.448219 100.198064
L 140.102068 99.756143
L 140.443937 99.314223
L 141.171605 98.872302
L 141.502046 98.430381
L 142.258894 97.988461
L 142.389242 97.54654
L 144.619914 96.662699
L 144.896602 95.778857
L 145.408213 94.453095
L 146.31684 94.011175
L 147.588467 93.127333
L 147.678879 92.685413
L 149.34515 91.801571
L 149.381897 91.359651
L 150.077065 90.91773
L 150.537414 90.475809
L 150.694094 90.033889
L 150.991919 89.591968
L 151.023843 89.150047
L 151.208441 88.708127
L 151.82663 88.266206
L 152.431281 87.382365
L 154.072193 86.498523
L 154.322364 86.056603
L 154.431355 85.614682
L 154.768014 85.172761
L 156.811716 84.730841
L 159.135043 83.846999
L 159.282716 83.405079
L 159.874489 82.963158
L 160.584917 82.079317
L 160.803192 81.637396
L 162.381727 81.195475
L 162.559033 80.753555
L 163.511121 80.311634
L 163.522277 79.869713
L 164.539552 79.427793
L 164.819215 78.985872
L 166.950042 78.102031
L 166.991261 77.66011
L 167.677539 77.218189
L 167.822533 76.776269
L 169.373043 76.334348
L 169.454102 75.892427
L 170.064299 75.450507
L 171.097486 75.008586
L 171.713938 74.566665
L 171.849578 74.124745
L 172.297847 73.682824
L 172.467865 72.798983
L 172.867466 72.357062
L 173.531279 71.915141
L 173.773069 71.473221
L 174.176101 71.0313
L 174.319906 70.589379
L 174.343488 70.147459
L 175.568836 69.705538
L 175.669395 69.263617
L 177.338204 68.821697
L 177.447115 68.379776
L 178.700558 67.937855
L 178.729375 67.495935
L 179.926567 66.612093
L 180.999706 66.170173
L 181.558182 65.728252
L 182.737451 65.286331
L 184.65049 64.844411
L 186.44597 63.518649
L 186.839288 63.076728
L 187.509798 62.634807
L 189.962634 61.750966
L 189.976143 61.309045
L 193.236355 59.541363
L 193.293652 59.099442
L 194.925404 58.657521
L 196.120593 58.215601
L 199.57762 57.331759
L 200.539158 56.889839
L 201.67253 56.005997
L 205.831173 55.122156
L 211.528101 54.680235
L 212.084599 54.238315
L 213.428483 53.796394
L 215.724833 53.354473
L 216.618001 52.912553
L 216.949 52.470632
L 219.051979 51.586791
L 223.02554 50.702949
L 224.8258 49.377187
L 225.203362 48.935267
L 228.275412 48.493346
L 228.673648 48.051425
L 229.699574 47.167584
L 230.249221 46.283743
L 230.990389 45.841822
L 232.635716 45.399901
L 235.460932 44.957981
L 236.59537 43.632219
L 237.90692 43.190298
L 237.989967 42.306457
L 239.174047 41.864536
L 239.368958 41.422615
L 243.949655 40.538774
L 248.161113 40.096853
L 248.884774 39.654933
L 261.862258 39.213012
L 262.260566 38.771091
L 264.698141 38.329171
L 265.30573 37.88725
L 268.792984 37.445329
L 270.727562 37.003409
L 273.977391 36.561488
L 292.697197 35.677647
L 316.45904 35.235726
L 319.742228 34.793805
L 320.30117 34.351885
L 338.847082 33.909964
L 346.277206 33.468043
L 371.935283 33.026123
L 375.665561 32.584202
L 392.763125 32.142281
L 392.763125 32.142281
" clip-path="url(#pc1d7607b64)" style="fill: none; stroke: #8b929b; stroke-width: 1.8; stroke-linecap: square"/>
   </g>
   <g id="patch_3">
    <path d="M 41.223125 254.406281
L 41.223125 21.558281
" style="fill: none; stroke: #7b8189; stroke-width: 0.8; stroke-linejoin: miter; stroke-linecap: square"/>
   </g>
   <g id="patch_4">
    <path d="M 41.223125 254.406281
L 409.503125 254.406281
" style="fill: none; stroke: #7b8189; stroke-width: 0.8; stroke-linejoin: miter; stroke-linecap: square"/>
   </g>
   <g id="text_16">
    <text style="font-size: 11px; font-family: 'DejaVu Sans'; text-anchor: middle; fill: #252a30" x="225.363125" y="15.558281" transform="rotate(-0 225.363125 15.558281)">Formal error distributions (480 paired rows per method)</text>
   </g>
   <g id="legend_1">
    <g id="line2d_31">
     <path d="M 300.471875 207.515031
L 308.471875 207.515031
L 316.471875 207.515031
" style="fill: none; stroke: #c96a2b; stroke-width: 1.8; stroke-linecap: square"/>
    </g>
    <g id="text_17">
     <text style="font-size: 8px; font-family: 'DejaVu Sans'; text-anchor: start; fill: #252a30" x="322.871875" y="210.315031" transform="rotate(-0 322.871875 210.315031)">SR-SC-NARR</text>
    </g>
    <g id="line2d_32">
     <path d="M 300.471875 219.257531
L 308.471875 219.257531
L 316.471875 219.257531
" style="fill: none; stroke: #325d88; stroke-width: 1.8; stroke-linecap: square"/>
    </g>
    <g id="text_18">
     <text style="font-size: 8px; font-family: 'DejaVu Sans'; text-anchor: start; fill: #252a30" x="322.871875" y="222.057531" transform="rotate(-0 322.871875 222.057531)">Kinetic Fourier ≥25</text>
    </g>
    <g id="line2d_33">
     <path d="M 300.471875 231.000031
L 308.471875 231.000031
L 316.471875 231.000031
" style="fill: none; stroke: #2f7d6a; stroke-width: 1.8; stroke-linecap: square"/>
    </g>
    <g id="text_19">
     <text style="font-size: 8px; font-family: 'DejaVu Sans'; text-anchor: start; fill: #252a30" x="322.871875" y="233.800031" transform="rotate(-0 322.871875 233.800031)">D6 shell 3 (rank 37)</text>
    </g>
    <g id="line2d_34">
     <path d="M 300.471875 242.742531
L 308.471875 242.742531
L 316.471875 242.742531
" style="fill: none; stroke: #8b929b; stroke-width: 1.8; stroke-linecap: square"/>
    </g>
    <g id="text_20">
     <text style="font-size: 8px; font-family: 'DejaVu Sans'; text-anchor: start; fill: #252a30" x="322.871875" y="245.542531" transform="rotate(-0 322.871875 245.542531)">Long-anchor neural</text>
    </g>
   </g>
  </g>
 </g>
 <defs>
  <clipPath id="pc1d7607b64">
   <rect x="41.223125" y="21.558281" width="368.28" height="232.848"/>
  </clipPath>
 </defs>
</svg>
